<svg aria-hidden="true" style="width:0;height:0;position:absolute;overflow:hidden" xmlns="http://www.w3.org/2000/svg"><defs><symbol id="search-icon" viewBox="0 0 32 32"><path d="M20.109 3.456c-4.595-4.608-12.058-4.608-16.653 0s-4.595 12.058 0 16.653c4.416 4.416 11.456 4.582 16.077.525.013.013.013.026.026.038l11.11 11.11a.788.788 0 0 0 1.112-1.114l.001.001-11.11-11.11c-.013-.013-.026-.013-.038-.026 4.058-4.634 3.891-11.674-.525-16.077zm-1.114 15.539c-3.981 3.981-10.458 3.981-14.438 0s-3.981-10.458 0-14.438 10.458-3.981 14.438 0 3.981 10.458 0 14.438z"/></symbol><symbol id="clear-icon" viewBox="0 0 32 32"><path d="M29.088 0 16 13.088 2.912 0 0 2.912 13.088 16 0 29.088 2.912 32 16 18.912 29.088 32 32 29.088 18.912 16 32 2.912z"/></symbol><symbol id="comment-icon" viewBox="0 0 32 32"><path d="M27.152 16a9.433 9.433 0 0 1-.885 3.989c-.443.955 1.605 4.107.885 4.885-.72.784-4.219-.805-5.163-.251a11.983 11.983 0 0 1-6.064 1.621c-6.203.005-11.232-4.581-11.232-10.245 0-5.659 5.029-10.251 11.232-10.251s11.227 4.592 11.227 10.251z"/></symbol><symbol id="download-icon" viewBox="0 0 32 32"><path d="M26.667 15.584c0-4.331-2.533-8-6.267-9.664-1.131-.533-1.733.331-1.733 1.067v5.664c0 .533.469.933 1.003.933h2.069c1.003 0 1.269.736.597 1.6l-5.131 6.533c-.667.8-1.733.8-2.336 0l-5.136-6.533c-.667-.8-.4-1.6.597-1.6h2.069c.533 0 1.003-.4 1.003-.933V6.982c0-.736-1.003-1.397-1.867-1.067-2.869 1.333-5.067 3.936-5.803 7.067-3.269.533-5.733 3.269-5.733 6.603 0 3.669 2.997 6.667 6.667 6.667h20c2.933 0 5.333-2.4 5.333-5.333s-2.4-5.333-5.333-5.333z"/></symbol><symbol id="like-icon" viewBox="0 0 32 32"><path d="M27.973 12.501v.533c-.011.064-.032.123-.037.181-.059.507-.091 1.019-.181 1.515a11.28 11.28 0 0 1-1.189 3.307c-.699 1.275-1.595 2.389-2.635 3.392-1.051 1.008-2.213 1.872-3.456 2.635a23.991 23.991 0 0 1-4.416 2.155.494.494 0 0 1-.304-.005 20.72 20.72 0 0 1-3.734-1.79l.091.052a35.365 35.365 0 0 1-2.384-1.579c-.896-.651-1.701-1.413-2.443-2.24a13.115 13.115 0 0 1-1.968-2.827 11.165 11.165 0 0 1-1.216-4.331c-.011-.16-.037-.315-.059-.469v-.533c.021-.144.037-.288.053-.432a7.298 7.298 0 0 1 1.019-2.976A7.193 7.193 0 0 1 7.05 6.977 6.43 6.43 0 0 1 9.866 5.82a5.948 5.948 0 0 1 3.168.368c1.136.459 2.08 1.189 2.843 2.155.037.048.085.091.139.144.064-.075.112-.128.16-.187a6.88 6.88 0 0 1 2.827-2.117 5.8 5.8 0 0 1 2.677-.411c.987.08 1.909.368 2.763.869a6.993 6.993 0 0 1 2.16 1.989 7.124 7.124 0 0 1 1.232 2.869c.048.331.091.667.139 1.003z"/></symbol><symbol id="view-icon" viewBox="0 0 32 32"><path d="M20.992 11.525c0 3.189-2.235 5.771-4.992 5.771s-4.992-2.587-4.992-5.771c0-3.189 2.235-5.776 4.992-5.776s4.992 2.587 4.992 5.776zm-1.941 7.782H12.95s-6.677-.331-6.677 6.944h19.456c0-7.28-6.677-6.944-6.677-6.944z"/></symbol></defs></svg>