<svg aria-hidden="true" style="position: absolute; width: 0; height: 0; overflow: hidden;" version="1.1" xmlns="http://www.w3.org/2000/svg" xmlns:xlink="http://www.w3.org/1999/xlink">
<defs>

<symbol id="search-icon" viewBox="0 0 32 32">
<path d="M20.109 3.456c-4.595-4.608-12.058-4.608-16.653 0s-4.595 12.058 0 16.653c4.416 4.416 11.456 4.582 16.077 0.525 0.013 0.013 0.013 0.026 0.026 0.038l11.11 11.11c0.139 0.126 0.325 0.203 0.528 0.203 0.435 0 0.788-0.353 0.788-0.788 0-0.203-0.077-0.389-0.204-0.529l0.001 0.001-11.11-11.11c-0.013-0.013-0.026-0.013-0.038-0.026 4.058-4.634 3.891-11.674-0.525-16.077zM18.995 18.995c-3.981 3.981-10.458 3.981-14.438 0s-3.981-10.458 0-14.438 10.458-3.981 14.438 0 3.981 10.458 0 14.438z"></path>
</symbol>

<symbol id="clear-icon" viewBox="0 0 32 32">
<path d="M29.088 0l-13.088 13.088-13.088-13.088-2.912 2.912 13.088 13.088-13.088 13.088 2.912 2.912 13.088-13.088 13.088 13.088 2.912-2.912-13.088-13.088 13.088-13.088z"></path>
</symbol>

<symbol id="comment-icon" viewBox="0 0 32 32">
<path d="M27.152 16c0 1.413-0.315 2.763-0.885 3.989-0.443 0.955 1.605 4.107 0.885 4.885-0.72 0.784-4.219-0.805-5.163-0.251-1.749 1.024-3.829 1.621-6.064 1.621-6.203 0.005-11.232-4.581-11.232-10.245 0-5.659 5.029-10.251 11.232-10.251s11.227 4.592 11.227 10.251z"></path>
</symbol>

<symbol id="download-icon" viewBox="0 0 32 32">
<path d="M26.667 15.584c0-4.331-2.533-8-6.267-9.664-1.131-0.533-1.733 0.331-1.733 1.067v5.664c0 0.533 0.469 0.933 1.003 0.933h2.069c1.003 0 1.269 0.736 0.597 1.6l-5.131 6.533c-0.667 0.8-1.733 0.8-2.336 0l-5.136-6.533c-0.667-0.8-0.4-1.6 0.597-1.6h2.069c0.533 0 1.003-0.4 1.003-0.933v-5.669c0-0.736-1.003-1.397-1.867-1.067-2.869 1.333-5.067 3.936-5.803 7.067-3.269 0.533-5.733 3.269-5.733 6.603 0 3.669 2.997 6.667 6.667 6.667h20c2.933 0 5.333-2.4 5.333-5.333s-2.4-5.333-5.333-5.333z"></path>
</symbol>

<symbol id="like-icon" viewBox="0 0 32 32">
<path d="M27.973 12.501v0.533c-0.011 0.064-0.032 0.123-0.037 0.181-0.059 0.507-0.091 1.019-0.181 1.515-0.219 1.163-0.624 2.267-1.189 3.307-0.699 1.275-1.595 2.389-2.635 3.392-1.051 1.008-2.213 1.872-3.456 2.635-1.403 0.864-2.869 1.595-4.416 2.155-0.091 0.032-0.213 0.027-0.304-0.005-1.402-0.514-2.604-1.1-3.734-1.79l0.091 0.052c-0.816-0.496-1.611-1.019-2.384-1.579-0.896-0.651-1.701-1.413-2.443-2.24-0.773-0.859-1.445-1.797-1.968-2.827-0.693-1.36-1.109-2.8-1.216-4.331-0.011-0.16-0.037-0.315-0.059-0.469v-0.533c0.021-0.144 0.037-0.288 0.053-0.432 0.128-1.067 0.459-2.059 1.019-2.976 0.507-0.832 1.147-1.541 1.936-2.112 0.843-0.608 1.781-0.997 2.816-1.157 1.093-0.165 2.149-0.043 3.168 0.368 1.136 0.459 2.080 1.189 2.843 2.155 0.037 0.048 0.085 0.091 0.139 0.144 0.064-0.075 0.112-0.128 0.16-0.187 0.763-0.949 1.701-1.664 2.827-2.117 0.853-0.347 1.749-0.485 2.677-0.411 0.987 0.080 1.909 0.368 2.763 0.869 0.859 0.507 1.579 1.173 2.16 1.989 0.619 0.869 1.040 1.824 1.232 2.869 0.048 0.331 0.091 0.667 0.139 1.003z"></path>
</symbol>

<symbol id="view-icon" viewBox="0 0 32 32">
<path d="M20.992 11.525c0 3.189-2.235 5.771-4.992 5.771s-4.992-2.587-4.992-5.771c0-3.189 2.235-5.776 4.992-5.776s4.992 2.587 4.992 5.776zM19.051 19.307h-6.101s-6.677-0.331-6.677 6.944h19.456c0-7.28-6.677-6.944-6.677-6.944z"></path>
</symbol>

</defs>
</svg>
